<svg xmlns="http://www.w3.org/2000/svg" width="151.943" height="131.978" viewBox="0 0 151.943 131.978">
  <g id="Group_40" data-name="Group 40" transform="translate(-99.147 -858.652)">
    <g id="Group_39" data-name="Group 39">
      <circle id="Ellipse_35" data-name="Ellipse 35" cx="63.489" cy="63.489" r="63.489" transform="translate(111.62 861.152)" fill="none" stroke="#1a1818" stroke-miterlimit="10" stroke-width="5"/>
      <circle id="Ellipse_36" data-name="Ellipse 36" cx="54.072" cy="54.072" r="54.072" transform="translate(121.037 870.569)" fill="none" stroke="#1a1818" stroke-miterlimit="10" stroke-width="5"/>
      <g id="Group_33" data-name="Group 33">
        <line id="Line_95" data-name="Line 95" x1="6.899" y2="6.899" transform="translate(171.702 892.348)" fill="none" stroke="#1a1818" stroke-linecap="round" stroke-miterlimit="10" stroke-width="5"/>
        <line id="Line_96" data-name="Line 96" x2="6.899" y2="6.899" transform="translate(171.702 892.348)" fill="none" stroke="#1a1818" stroke-linecap="round" stroke-miterlimit="10" stroke-width="5"/>
      </g>
      <g id="Group_34" data-name="Group 34">
        <line id="Line_97" data-name="Line 97" x1="6.899" y2="6.899" transform="translate(191.215 892.348)" fill="none" stroke="#1a1818" stroke-linecap="round" stroke-miterlimit="10" stroke-width="5"/>
        <line id="Line_98" data-name="Line 98" x2="6.899" y2="6.899" transform="translate(191.215 892.348)" fill="none" stroke="#1a1818" stroke-linecap="round" stroke-miterlimit="10" stroke-width="5"/>
      </g>
      <g id="Group_35" data-name="Group 35">
        <line id="Line_99" data-name="Line 99" x1="6.899" y2="6.899" transform="translate(152.19 892.348)" fill="none" stroke="#1a1818" stroke-linecap="round" stroke-miterlimit="10" stroke-width="5"/>
        <line id="Line_100" data-name="Line 100" x2="6.899" y2="6.899" transform="translate(152.19 892.348)" fill="none" stroke="#1a1818" stroke-linecap="round" stroke-miterlimit="10" stroke-width="5"/>
      </g>
      <g id="Group_36" data-name="Group 36">
        <line id="Line_101" data-name="Line 101" x1="6.899" y2="6.899" transform="translate(171.702 911.86)" fill="none" stroke="#1a1818" stroke-linecap="round" stroke-miterlimit="10" stroke-width="5"/>
        <line id="Line_102" data-name="Line 102" x2="6.899" y2="6.899" transform="translate(171.702 911.86)" fill="none" stroke="#1a1818" stroke-linecap="round" stroke-miterlimit="10" stroke-width="5"/>
      </g>
      <g id="Group_37" data-name="Group 37">
        <line id="Line_103" data-name="Line 103" x1="6.899" y2="6.899" transform="translate(152.19 911.86)" fill="none" stroke="#1a1818" stroke-linecap="round" stroke-miterlimit="10" stroke-width="5"/>
        <line id="Line_104" data-name="Line 104" x2="6.899" y2="6.899" transform="translate(152.19 911.86)" fill="none" stroke="#1a1818" stroke-linecap="round" stroke-miterlimit="10" stroke-width="5"/>
      </g>
      <path id="Path_83" data-name="Path 83" d="M141.712,933.213l29.23,18.929a6.555,6.555,0,0,0,9.494-2.712l.03-.063a6.555,6.555,0,0,0-3.964-9.043l-33.219-10.451A1.862,1.862,0,0,0,141.712,933.213Z" fill="none" stroke="#1a1818" stroke-linecap="round" stroke-miterlimit="10" stroke-width="5"/>
      <path id="Path_84" data-name="Path 84" d="M173.56,946.531s-7.616,10.847,4.675,17.937c10.249,5.912,16.2-3.921,16.2-3.921s6.516-7.758-2.319-18.243c-12.508-14.845-2.035-23.447-.294-24.8" fill="none" stroke="#1a1818" stroke-linecap="round" stroke-miterlimit="10" stroke-width="5"/>
      <rect id="Rectangle_47" data-name="Rectangle 47" width="35.337" height="9.974" rx="4.964" transform="translate(248.589 906.967) rotate(90)" fill="#fff" stroke="#1a1818" stroke-miterlimit="10" stroke-width="5"/>
      <rect id="Rectangle_48" data-name="Rectangle 48" width="35.337" height="9.974" rx="4.964" transform="translate(111.62 906.967) rotate(90)" fill="#fff" stroke="#1a1818" stroke-miterlimit="10" stroke-width="5"/>
      <path id="Path_85" data-name="Path 85" d="M192.12,942.3" fill="none" stroke="#1a1818" stroke-linecap="round" stroke-miterlimit="10" stroke-width="5"/>
    </g>
    <circle id="Ellipse_37" data-name="Ellipse 37" cx="2.478" cy="2.478" r="2.478" transform="translate(195.674 909.38)" fill="#1a1818"/>
  </g>
</svg>
